<svg width="320" height="320" viewBox="0 0 320 320" xmlns="http://www.w3.org/2000/svg"><mask id="satori_om-id"><rect x="0" y="0" width="320" height="320" fill="#fff"/></mask><path x="0" y="0" width="320" height="320" fill="#0a0a0a" d="M56,0 h208 a56,56 0 0 1 56,56 v208 a56,56 0 0 1 -56,56 h-208 a56,56 0 0 1 -56,-56 v-208 a56,56 0 0 1 56,-56"/><mask id="satori_om-id-0"><rect x="70" y="70" width="180" height="180" fill="#fff"/></mask><g transform="translate(11.25 11.25)"><path fill="#ffffff" d="M115 227.5L70 227.5L70 70L115 70L115 92.5L137.5 92.5L137.5 115L160 115L160 92.5L182.5 92.5L182.5 70L227.5 70L227.5 227.5L182.5 227.5L182.5 137.5L160 137.5L160 182.5L137.5 182.5L137.5 137.5L115 137.5L115 227.5Z "/></g></svg>